<?xml version="1.0" encoding="UTF-8"?>
<svg width="128px" height="40px" viewBox="0 0 128 40" version="1.1" xmlns="http://www.w3.org/2000/svg" xmlns:xlink="http://www.w3.org/1999/xlink">
    <title>403F8486-E2FA-452C-829A-6718E1EF5C39</title>
    <g id="Visual-Design" stroke="none" stroke-width="1" fill="none" fill-rule="evenodd">
        <g id="@Screens/Login/Login-Desktop" transform="translate(-656.000000, -56.000000)">
            <g id="SSNC-Intralinks-Logo-RGB-Blue-F-(1)-Copy-3" transform="translate(656.000000, 56.000000)">
                <g id="Group" fill="#0066B4">
                    <path d="M26.9927461,22.2790202 C24.2108233,21.341853 21.7697179,20.685836 21.7697179,19.0585729 C21.7697179,17.5548456 23.1457686,16.7113951 25.1480714,16.7113951 C26.6476684,16.7113951 28.0407599,17.3674121 28.8416811,18.6453674 L33.5279217,18.6453674 C32.5139896,15.3226837 29.3443869,12.9243876 25.3014393,12.9243876 C20.6705815,12.9243876 17.292228,15.8338658 17.292228,19.2460064 C17.292228,23.0628328 20.4831318,24.3748669 23.1116868,25.3162939 C26.2088659,26.4408946 29.3060449,27.1309904 29.3060449,29.2268371 C29.3060449,30.6368477 27.9598158,31.7614483 25.7700633,31.7614483 C23.7720207,31.7614483 22.2255613,30.7944622 21.382038,29.4696486 L16.6191134,29.4696486 C17.8843984,33.2523962 20.9943581,35.7060703 25.4590674,35.7060703 C30.4648244,35.7060703 33.8431816,32.9201278 33.8431816,29.0095847 C33.8474381,24.7199148 30.18365,23.4078807 26.9927461,22.2790202 Z" id="Path"></path>
                    <path d="M10.3736327,22.2790202 C7.58744963,21.341853 5.14634427,20.6815761 5.14634427,19.0585729 C5.14634427,17.5548456 6.52239493,16.7113951 8.52469775,16.7113951 C10.0242948,16.7113951 11.4173863,17.3674121 12.2140472,18.6453674 L16.9045481,18.6453674 C15.890616,15.3226837 12.7210132,12.9243876 8.67806563,12.9243876 C4.04720783,12.9243876 0.668854347,15.8338658 0.668854347,19.2460064 C0.668854347,23.0628328 3.8597582,24.3748669 6.48831318,25.3162939 C9.58549223,26.4408946 12.6826713,27.1309904 12.6826713,29.2268371 C12.6826713,30.6368477 11.3364421,31.7614483 9.14668969,31.7614483 C7.15290731,31.7614483 5.60218768,30.7944622 4.75866436,29.4696486 L0,29.4696486 C1.26528497,33.2523962 4.37098446,35.7060703 8.83995394,35.7060703 C13.845711,35.7060703 17.2240682,32.9201278 17.2240682,29.0095847 C17.2283247,24.7199148 13.5645366,23.4078807 10.3736327,22.2790202 Z" id="Path"></path>
                    <path d="M68.6108233,29.4696486 C67.37962,30.628328 65.6244099,31.3567625 63.7626943,31.3567625 C59.8518135,31.3567625 56.9420841,28.6048988 56.9420841,24.315229 C56.9420841,20.1533546 59.6643638,17.2140575 63.7626943,17.2140575 C65.3048935,17.2140575 66.8598733,17.742279 68.0442142,18.6496273 L73.6719632,18.6496273 C71.720783,15.1863685 68.0527346,12.9286475 63.7626943,12.9286475 C57.4746114,12.9286475 52.4049511,17.7167199 52.4049511,24.315229 C52.4049511,30.9179979 57.4746114,35.7018104 63.7626943,35.7018104 C68.2913069,35.7018104 72.1212435,33.2438765 73.9701785,29.4653887 L68.6108233,29.4653887 L68.6108233,29.4696486 Z" id="Path"></path>
                    <path d="M52.6861255,0 L52.6861255,40 L33.8431779,40 L33.8431779,0 L52.6861255,0 Z M42.9089234,17.4057508 C40.3059298,17.4057508 38.7211284,19.113951 38.7211284,21.0947817 C38.7211284,22.1767838 39.0960276,23.0713525 39.9310305,24.1576145 C37.9287277,25.0138445 36.825331,26.3684771 36.825331,28.2641108 C36.825331,30.8242812 38.8659758,32.4515442 41.575475,32.4515442 C43.347726,32.4515442 44.8047208,31.7231097 46.0572251,30.5559105 L46.0572251,30.5559105 L46.0785262,30.5346113 L48.5321779,32.988 L48.5324122,25.742279 L44.5405872,25.742279 L43.5777778,24.7625133 C45.5161773,24.0340788 46.7857225,22.8881789 46.7857225,20.9499468 C46.7857225,18.9478168 45.2222222,17.4057508 42.9089234,17.4057508 Z M41.3070812,25.7678381 L44.5831894,29.0436635 L44.6002303,29.0607029 C43.7652274,29.8487753 42.8492804,30.3301384 41.848129,30.3301384 C40.4337363,30.3301384 39.4112838,29.4313099 39.4112838,28.1831736 C39.4112838,27.2374867 39.9864134,26.3514377 41.3070812,25.7678381 L41.3070812,25.7678381 Z M42.8492804,19.4334398 C43.8291307,19.4334398 44.5150259,20.0766773 44.5150259,21.0990415 C44.5150259,22.1810437 43.7268854,22.8498403 42.2230282,23.3951012 C41.4093264,22.4962726 41.1196315,21.9552716 41.1196315,21.2055378 C41.1196315,20.1618743 41.8055268,19.4334398 42.8492804,19.4334398 Z" id="Combined-Shape"></path>
                </g>
                <g id="Group" transform="translate(88.000000, 5.000000)" fill-rule="nonzero">
                    <path d="M37.5097391,30.7145483 L2.32824995,30.7145483 C1.05243771,30.7145483 0.0171826565,29.7033526 0.0171826565,28.4632855 L0.0171826565,2.28455318 C0.0171826565,1.04448606 1.05673337,0.0332903924 2.32824995,0.0332903924 L37.5097391,0.0332903924 C38.7855513,0.0332903924 39.8208064,1.04448606 39.8208064,2.28455318 L39.8208064,28.4632855 C39.8208064,29.7075139 38.7812557,30.7145483 37.5097391,30.7145483 Z" id="Path" fill="#FFFFFF"></path>
                    <path d="M37.5097391,0.728227334 L2.32824995,0.728227334 C1.44763881,0.728227334 0.7302629,1.42732558 0.7302629,2.28455318 L0.7302629,28.4632855 C0.7302629,29.3205131 1.44763881,30.0196114 2.32824995,30.0196114 L37.5097391,30.0196114 C38.3903502,30.0196114 39.1077261,29.3205131 39.1077261,28.4632855 L39.1077261,2.28455318 C39.1034305,1.42732558 38.3860546,0.728227334 37.5097391,0.728227334 Z" id="Path" fill="#000000"></path>
                    <g transform="translate(6.486453, 7.365499)" fill="#FFFFFF" id="Shape">
                        <path d="M1.61946537,8.98840595 C1.9029792,8.98840595 2.1306494,9.2131161 2.1306494,9.48776184 L2.1306494,14.9681927 L4.6564999,14.9681927 C4.94001374,14.9681927 5.16768393,15.1929028 5.16768393,15.4675486 C5.1719796,15.7463556 4.94001374,15.9710658 4.66079557,15.9710658 L1.61946537,15.9710658 C1.33595154,15.9710658 1.10828134,15.7463556 1.10828134,15.4717099 L1.10828134,9.48776184 C1.10828134,9.2131161 1.33595154,8.98840595 1.61946537,8.98840595 Z M6.95038454,8.98840595 C7.23389837,8.98840595 7.46156857,9.2131161 7.46156857,9.48776184 L7.46156857,15.4717099 L7.45727291,15.4717099 C7.45727291,15.7463556 7.22960271,15.9710658 6.94608888,15.9710658 C6.66257505,15.9710658 6.43490485,15.7463556 6.43490485,15.4717099 L6.43490485,9.98711773 L5.75618992,9.98711773 C5.47267609,9.98711773 5.24500589,9.76240758 5.24500589,9.48776184 C5.24500589,9.2131161 5.47267609,8.98840595 5.75618992,8.98840595 L6.95038454,8.98840595 Z M13.5914813,8.98840595 C13.8749951,8.98840595 14.1026653,9.2131161 14.1026653,9.48776184 L14.1026653,15.0056444 C14.1026653,15.4758712 13.8019688,15.8545494 13.3509241,15.9502593 C13.2821935,15.9627432 13.2177585,15.9710658 13.1533235,15.9710658 C12.7796008,15.9710658 12.4402433,15.7505169 12.2727124,15.3843226 L9.94446243,10.2742474 L9.94446243,15.4717099 C9.94446243,15.7463556 9.71679223,15.9710658 9.4332784,15.9710658 C9.14976457,15.9710658 8.92209437,15.7463556 8.92209437,15.4717099 L8.92209437,9.95382733 C8.92209437,9.48360054 9.22279086,9.10492233 9.67383559,9.00921245 C10.1248803,8.91766387 10.5544467,9.14653532 10.7520473,9.57514912 L13.0802972,14.6852244 L13.0802972,9.48776184 C13.0802972,9.2131161 13.3122631,8.98840595 13.5914813,8.98840595 Z M16.0786708,8.98840595 C16.3621846,8.98840595 16.5898548,9.2131161 16.5898548,9.48776184 L16.5898548,15.4717099 C16.5898548,15.7463556 16.3621846,15.9710658 16.0786708,15.9710658 C15.795157,15.9710658 15.5674868,15.7463556 15.5674868,15.4717099 L15.5674868,9.48776184 C15.5674868,9.2131161 15.795157,8.98840595 16.0786708,8.98840595 Z M20.0263861,9.08827713 C20.2540563,9.25056779 20.3056043,9.56266522 20.142369,9.78737537 L18.1405896,12.4838972 L20.2626476,15.1720963 C20.4344742,15.3843226 20.3915176,15.69642 20.168143,15.8670333 C20.0736384,15.9377754 19.9662468,15.9710658 19.8545596,15.9710658 C19.6999156,15.9710658 19.5495674,15.904485 19.4464715,15.7754847 L17.0924475,12.7959946 C16.9549863,12.62122 16.9506906,12.3798647 17.0838562,12.2009288 L19.3090102,9.20063221 C19.4722454,8.97592206 19.7944203,8.92598647 20.0263861,9.08827713 Z M24.8289386,8.99672855 C25.1081568,8.99672855 25.3401226,9.2172774 25.3401226,9.49192314 C25.3401226,9.76656888 25.1124524,9.98711773 24.8289386,9.98711773 L23.3727085,9.98711773 C22.3623683,9.98711773 22.2060181,10.418741 22.2001682,10.8511635 L22.1999922,10.8776357 C22.1999922,11.2063783 22.2730185,11.5559275 23.1579253,11.855541 C23.3154329,11.9089443 23.4665236,11.9561314 23.6072759,11.9990016 L24.0427993,12.1306327 C24.8206771,12.3685869 25.4308333,12.6098168 25.6759137,13.4991526 L25.6837758,13.5283832 C25.847011,14.123449 25.7310281,14.722676 25.3744879,15.1720963 L25.3566089,15.1941439 C25.0587893,15.5554286 24.4752336,15.9710658 23.3512301,15.9710658 L21.8047911,15.9710658 C21.5255729,15.9710658 21.293607,15.7505169 21.293607,15.4758712 C21.293607,15.2012254 21.5212772,14.9806766 21.8047911,14.9806766 L23.3512301,14.9806766 C23.9311448,14.9806766 24.3521199,14.8391924 24.5711988,14.5645467 C24.734434,14.360643 24.7816863,14.0735134 24.7043643,13.7780612 L24.6978638,13.7537433 C24.5906684,13.3630215 24.4290982,13.2859459 23.570309,13.0290273 L23.3808748,12.9714384 C23.2108256,12.9195492 23.0257143,12.862113 22.8271591,12.7959946 L22.7846208,12.7812444 C22.0855866,12.5358635 21.1862154,12.0685163 21.1862154,10.881797 C21.1862154,10.3408281 21.3623377,9.88724655 21.6888081,9.56266522 C22.0711222,9.18814831 22.6381499,8.99672855 23.3727085,8.99672855 L24.8289386,8.99672855 Z M26.6073435,14.7101922 C26.9638837,14.7101922 27.2516932,14.9931605 27.2516932,15.3385483 C27.2516932,15.6839361 26.9638837,15.9669045 26.6073435,15.9669045 C26.2508034,15.9669045 25.9629939,15.6880974 25.9629939,15.3385483 C25.9629939,14.9931605 26.2508034,14.7101922 26.6073435,14.7101922 Z M26.6073435,14.805902 C26.3066471,14.805902 26.0617942,15.0472574 26.0617942,15.3385483 C26.0617942,15.6340005 26.3066471,15.8711946 26.6073435,15.8711946 C26.90804,15.8711946 27.1528929,15.6298392 27.1528929,15.3385483 C27.1528929,15.0430961 26.90804,14.805902 26.6073435,14.805902 Z M26.5987522,15.0222896 C26.7533961,15.0222896 26.8221268,15.0847091 26.8221268,15.2053867 C26.8221268,15.2969353 26.7834658,15.3593548 26.6932568,15.3843226 L26.8092398,15.6007101 C26.8135354,15.6048714 26.8135354,15.613194 26.8135354,15.6173553 C26.8135354,15.6298392 26.8092398,15.6381618 26.8006484,15.6464844 C26.7920571,15.6506457 26.7834658,15.654807 26.7748744,15.654807 C26.7576918,15.654807 26.7448048,15.6464844 26.7362135,15.6340005 L26.6073435,15.3926452 L26.4655866,15.3926452 L26.4655866,15.6173553 C26.4655866,15.6381618 26.448404,15.654807 26.42263,15.654807 C26.4011517,15.654807 26.383969,15.6381618 26.383969,15.6173553 L26.383969,15.0888704 C26.383969,15.0514187 26.4140387,15.0222896 26.4526996,15.0222896 L26.5987522,15.0222896 Z M26.6073435,15.1013543 L26.4698823,15.1013543 L26.4698823,15.3177418 L26.6331175,15.3177418 C26.7061438,15.3177418 26.7448048,15.2886127 26.7448048,15.2053867 C26.7448048,15.1304834 26.6932568,15.1013543 26.6073435,15.1013543 Z M16.9506906,0.0166451962 C18.1792505,0.0166451962 19.1844359,0.994550474 19.1844359,2.1930046 C19.1844359,3.14594208 18.5529733,3.9573954 17.6766578,4.24868633 L18.9782441,6.22946468 C19.132888,6.46249743 19.0598617,6.77043356 18.8236002,6.92024032 C18.7376869,6.97433721 18.6431823,6.99930501 18.5486777,6.99930501 C18.3811468,6.99930501 18.2136159,6.91607903 18.1148156,6.77043356 L16.5383069,4.36936401 L15.5030518,4.36936401 L15.5030518,6.49578782 L15.4987561,6.49578782 C15.4987561,6.77043356 15.2710859,6.99514371 14.9875721,6.99514371 C14.7040583,6.99514371 14.4763881,6.77043356 14.4763881,6.49578782 L14.4763881,0.516001083 C14.4763881,0.26216184 14.6739886,0.0540968877 14.9231371,0.0208064953 C14.9415471,0.0172396675 14.9568011,0.0167301207 14.9770145,0.0166451962 L16.9506906,0.0166451962 Z M12.994384,0.0166451962 C13.2778978,0.0166451962 13.505568,0.241355345 13.505568,0.516001083 C13.505568,0.79064682 13.2778978,1.01535697 12.994384,1.01535697 L12.2254601,1.01535697 L12.2254601,6.49578782 C12.2254601,6.77043356 11.9977899,6.99514371 11.714276,6.99514371 C11.4307622,6.99514371 11.203092,6.77043356 11.203092,6.49578782 L11.203092,1.01535697 L10.4169855,1.01535697 C10.1378334,1.01535697 9.91281991,0.797507793 9.90596249,0.528640946 L9.90580146,0.516001083 C9.90150579,0.241355345 10.129176,0.0166451962 10.4126898,0.0166451962 L12.994384,0.0166451962 Z M1.61516971,0.0166451962 C1.89868354,0.0166451962 2.12635374,0.241355345 2.12635374,0.516001083 L2.12635374,6.49578782 C2.12635374,6.77043356 1.89438788,6.99514371 1.61516971,6.99514371 C1.33165588,6.99514371 1.10398568,6.77043356 1.10398568,6.49578782 L1.10398568,1.01535697 L0.536958015,1.01535697 C0.253444183,1.01535697 0.0257739847,0.79064682 0.0257739847,0.516001083 C0.0257739847,0.241355345 0.253444183,0.0166451962 0.536958015,0.0166451962 L1.61516971,0.0166451962 Z M22.6596282,0.0166451962 C23.1192643,0.0166451962 23.5058741,0.278807037 23.621857,0.669969147 L25.32294,6.35846495 C25.4002619,6.62062679 25.245618,6.89943383 24.9749912,6.97433721 C24.7043643,7.0492406 24.4208505,6.89943383 24.3435286,6.63727199 L22.6639239,1.00703437 L22.6596282,1.00703437 L20.9800236,6.63727199 C20.9069973,6.85365954 20.705101,6.99514371 20.4860222,6.99514371 C20.4387699,6.99514371 20.3915176,6.99098241 20.3442653,6.97433721 C20.0736384,6.89943383 19.9189945,6.62062679 19.9963165,6.35846495 L21.6973995,0.669969147 C21.8133824,0.278807037 22.2042878,0.0166451962 22.6596282,0.0166451962 Z M8.428093,0.00832259811 C8.71160683,0.00832259811 8.93927703,0.233032747 8.93927703,0.507678484 L8.93927703,6.02556103 C8.93927703,6.49578782 8.63858054,6.87446604 8.18753581,6.97017591 C8.11880518,6.98265981 8.05437022,6.99098241 7.98993526,6.99098241 C7.61621248,6.99098241 7.27685502,6.77043356 7.10932411,6.40423924 L4.78107416,1.29000271 L4.78107416,6.49162652 C4.78107416,6.76627226 4.55340396,6.99098241 4.26989013,6.99098241 C3.9863763,6.99098241 3.7587061,6.76627226 3.7587061,6.49162652 L3.7587061,0.973743978 C3.7587061,0.503517185 4.05940259,0.124838972 4.51044732,0.0291290934 C4.96149206,-0.0624194858 5.39535413,0.166451962 5.58865902,0.595065765 L7.91690897,5.705141 L7.91690897,0.507678484 C7.91690897,0.233032747 8.14457917,0.00832259811 8.428093,0.00832259811 Z M16.9506906,1.01119567 L15.4987561,1.01119567 L15.4987561,3.36649093 L16.9506906,3.36649093 C17.6165185,3.36649093 18.1577722,2.83800595 18.1577722,2.1888433 C18.1577722,1.53968065 17.6165185,1.01119567 16.9506906,1.01119567 Z"></path>
                    </g>
                </g>
            </g>
        </g>
    </g>
</svg>